<svg id="Layer_1" data-name="Layer 1" xmlns="http://www.w3.org/2000/svg" viewBox="0 0 1000 106.78"><defs><style>.cls-1{fill:#fff;}</style></defs><title>Artboard 1</title><path class="cls-1" d="M260.6,30.56c-9.52,0-17.23,3.3-22.54,10.23L225.44,34.6h-7.29v69.65H240V60a11.43,11.43,0,0,1,22.87,0v44.28h21.92s0-27.19,0-47.18C284.82,35,267.57,30.56,260.6,30.56Z"/><path class="cls-1" d="M87.22,30.56c-9.52,0-17.67,3.31-23.86,12.05,0,0-6.33-12.05-20.91-12.05-9.52,0-17.23,3.3-22.54,10.23L7.29,34.6H0v69.65H21.87V60a11.43,11.43,0,1,1,22.87,0v44.28H66.67s0-24.89,0-44.56A11.42,11.42,0,0,1,89.51,60v44.28h21.92s0-27.19,0-47.18C111.44,35,94.18,30.56,87.22,30.56Z"/><path class="cls-1" d="M336.89,29.55a38.61,38.61,0,1,0,38.61,38.61A38.61,38.61,0,0,0,336.89,29.55Zm0,57.46a18.84,18.84,0,1,1,18.84-18.84A18.84,18.84,0,0,1,336.89,87Z"/><path class="cls-1" d="M730.23,29.55a38.61,38.61,0,1,0,38.61,38.61A38.61,38.61,0,0,0,730.23,29.55Zm0,57.46a18.84,18.84,0,1,1,18.84-18.84A18.84,18.84,0,0,1,730.23,87Z"/><path class="cls-1" d="M507.95,80.65c-2.61,5-7.87,7.64-13.51,7.64-6.6,0-14.63-5.76-14.63-14.93l52.41-.06A37.6,37.6,0,1,0,495,105.77,37.51,37.51,0,0,0,524.8,91ZM495,45.58c6.61,0,14.63,5.77,14.63,14.93H479.8C479.8,50.91,487.06,45.58,495,45.58Z"/><path class="cls-1" d="M200.49,34.6h-7.31L185,37.88a37.6,37.6,0,1,0-6.42,64.45s3.31-1.64,6.33-3.42l8.24,5.35h7.31ZM163.24,87.07a18.88,18.88,0,1,1,12-4.27A18.87,18.87,0,0,1,163.24,87.07Z"/><path class="cls-1" d="M854.41,34.6H847.1L839,37.88a37.6,37.6,0,1,0-6.42,64.45s3.31-1.64,6.33-3.42l8.24,5.35h7.31ZM817.16,87.07a18.88,18.88,0,1,1,12-4.27A18.87,18.87,0,0,1,817.16,87.07Z"/><path class="cls-1" d="M588.84,30.55A24.14,24.14,0,0,0,568.32,42L553.8,34.6h-7.29v69.65h21.88v-34c.07-11.15,9.13-20.6,20.3-20.6a20.4,20.4,0,0,1,2.41.16l0-19.12C590.38,30.59,589.61,30.55,588.84,30.55Z"/><path class="cls-1" d="M914.4,30.55A24.14,24.14,0,0,0,893.88,42L879.35,34.6h-7.29v69.65h21.88v-34c.07-11.15,9.13-20.6,20.3-20.6a20.4,20.4,0,0,1,2.41.16l0-19.12C915.94,30.59,915.17,30.55,914.4,30.55Z"/><polygon class="cls-1" points="430.71 32.58 416.37 77.57 402.16 32.58 378.49 32.58 407.12 104.25 425.31 104.25 454.38 32.58 430.71 32.58"/><path class="cls-1" d="M643.67,30.57a37.22,37.22,0,0,0-16.22,3.73V0h-6.87L606.05,7.41v96.84h7.29l8.25-5.37c3,1.78,6.33,3.43,6.33,3.43a37.41,37.41,0,0,0,15.74,3.48h0a37.61,37.61,0,1,0,0-75.23Zm-12.31,23a18.86,18.86,0,1,1-6.91,14.59A18.78,18.78,0,0,1,631.36,53.59Z"/><path class="cls-1" d="M985.48,0h-7.4V34.08a37.14,37.14,0,0,0-15.69-3.51l-.46,0h-.06a37.6,37.6,0,0,0,0,75.21h.52a37.41,37.41,0,0,0,15.74-3.48s3.31-1.64,6.33-3.43l8.25,5.37H1000V7.41Zm-3.87,68.19a18.87,18.87,0,1,1-6.91-14.59A18.82,18.82,0,0,1,981.61,68.19Z"/></svg>